HIERARCHY
ROOT ui
{
	 OFFSET 0 0 0
	 CHANNELS 3 XPosition YPosition Z Position
	 EndSite
	 {
	 OFFSET 0 -1 0
	 }
}
ROOT li
{
	 OFFSET 0 0 0
	 CHANNELS 3 XPosition YPosition Z Position
	 EndSite
	 {
	 OFFSET 0 -1 0
	 }
}
ROOT ul
{
	 OFFSET 0 0 0
	 CHANNELS 3 XPosition YPosition Z Position
	 EndSite
	 {
	 OFFSET 0 -1 0
	 }
}
ROOT ll
{
	 OFFSET 0 0 0
	 CHANNELS 3 XPosition YPosition Z Position
	 EndSite
	 {
	 OFFSET 0 -1 0
	 }
}
ROOT tt
{
	 OFFSET 0 0 0
	 CHANNELS 3 XPosition YPosition Z Position
	 EndSite
	 {
	 OFFSET 0 -1 0
	 }
}
ROOT tb
{
	 OFFSET 0 0 0
	 CHANNELS 3 XPosition YPosition Z Position
	 EndSite
	 {
	 OFFSET 0 -1 0
	 }
}
ROOT td
{
	 OFFSET 0 0 0
	 CHANNELS 3 XPosition YPosition Z Position
	 EndSite
	 {
	 OFFSET 0 -1 0
	 }
}
ROOT v
{
	 OFFSET 0 0 0
	 CHANNELS 3 XPosition YPosition Z Position
	 EndSite
	 {
	 OFFSET 0 -1 0
	 }
}
ROOT bn
{
	 OFFSET 0 0 0
	 CHANNELS 3 XPosition YPosition Z Position
	 EndSite
	 {
	 OFFSET 0 -1 0
	 }
}
MOTION
Frames: 10
Frame Time: 0.002
-0.01343899154663086	8.085200190544129E-5	0		0.48839111328125	-2.540661376953125	0		-1.105395263671875	0.059288932800292966	0		-0.8059947509765625	-2.634005859375	0		1.354961181640625	-0.8094363403320313	0		3.005384765625	-0.22185914611816407	0		4.44266357421875	-0.04466021347045898	0		5.57226171875	0.150360107421875	0		-0.09055858612060547	5.9532509765625	0		
-0.010049531936645508	-1.0341499745845795E-4	0		0.4793787231445312	-2.542434326171875	0		-1.0170848388671876	0.054968681335449215	0		-0.76393017578125	-2.634221923828125	0		1.3674862060546875	-0.8124729614257813	0		3.003006591796875	-0.21315484619140626	0		4.43989013671875	-0.05159070205688476	0		5.5607919921875	0.1599069366455078	0		-0.08866596984863281	5.953046875	0		
0.010107736587524414	-0.0026474640369415284	0		0.4893410949707031	-2.535625	0		-1.0756187744140624	0.06789228820800781	0		-0.7909588012695312	-2.627907958984375	0		1.376013671875	-0.8064296875	0		3.025888916015625	-0.23004031372070313	0		4.441064453125	-0.05265966033935547	0		5.56395849609375	0.1610620422363281	0		-0.07069281768798828	5.9615029296875	0		
0.003306858062744141	0.006402434825897217	0		0.5168023681640626	-2.54119287109375	0		-1.0068175048828125	0.058072200775146486	0		-0.7524364013671875	-2.632000244140625	0		1.3733499755859375	-0.7991575927734375	0		3.020632080078125	-0.1973383026123047	0		4.4575048828125	-0.03210805130004883	0		5.57107421875	0.16906236267089844	0		-0.06903144836425781	5.961322265625	0		
-0.0010562649965286256	-6.004639863967895E-4	0		0.4823208923339844	-2.531433349609375	0		-1.08309033203125	0.05638490676879883	0		-0.796875244140625	-2.621295166015625	0		1.371155517578125	-0.8059152221679687	0		3.02282177734375	-0.2268510284423828	0		4.44821484375	-0.03507012939453125	0		5.56967626953125	0.16316494750976562	0		-0.21514425659179687	5.9322822265625	0		
0.0014936729669570922	-7.420700192451477E-4	0		0.520080810546875	-2.545214599609375	0		-1.0055890502929687	0.05345574188232422	0		-0.7511417236328125	-2.637492431640625	0		1.3738616943359374	-0.8057904663085937	0		3.018837890625	-0.20626287841796875	0		4.4514765625	-0.04836609649658203	0		5.5721943359375	0.16410458374023437	0		-0.08229100036621094	5.952337890625	0		
-0.07317085266113281	0.001736264944076538	0		0.47198895263671875	-2.5371875	0		-1.078263671875	0.0557130012512207	0		-0.7802421264648437	-2.631087890625	0		1.3783651123046874	-0.8027160034179688	0		3.027753662109375	-0.22599473571777343	0		4.44895068359375	-0.03959859848022461	0		5.574462890625	0.1649691162109375	0		-0.2125045928955078	5.9319326171875	0		
0.005825037002563476	-9.82208013534546E-4	0		0.528361572265625	-2.5413408203125	0		-0.9971941528320313	0.0567886962890625	0		-0.7408092041015625	-2.633093505859375	0		1.3836112060546875	-0.7986677856445312	0		3.033361083984375	-0.19968280029296875	0		4.44894970703125	-0.040945877075195314	0		5.58061328125	0.17267892456054687	0		-0.06378519439697265	5.9617353515625	0		
0.014730443000793457	0.0057757887840271	0		0.5025287780761719	-2.53978466796875	0		-1.074484619140625	0.0551667594909668	0		-0.73865478515625	-2.63330126953125	0		1.3854927978515625	-0.7985596313476563	0		3.035721923828125	-0.22034548950195312	0		4.4658388671875	-0.03469147491455078	0		5.5823505859375	0.1734110412597656	0		-0.06290863418579101	5.96162841796875	0		
0.00907756233215332	-0.0011591720581054688	0		0.5194218139648438	-2.537104248046875	0		-0.9980388793945313	0.05240858840942383	0		-0.7388270874023437	-2.634442138671875	0		1.384009765625	-0.8023903198242187	0		3.042526123046875	-0.20611863708496095	0		4.45837548828125	-0.03198175048828125	0		5.589671875	0.1669684143066406	0		-0.07745201110839844	5.95084716796875	0		
